<svg version="1.1" id="Layer_1" xmlns="http://www.w3.org/2000/svg" xmlns:xlink="http://www.w3.org/1999/xlink" x="0px" y="0px"
	 width="100%" viewBox="0 0 360 601"  xml:space="preserve">



<path fill="rgb(82%,169%,17%)" opacity="1.000000" stroke="none" 
	d="
M301.001038,356.294800 
	C285.829681,370.679230 270.779846,384.750549 255.793823,398.889496 
	C242.133926,411.777313 228.543213,424.738464 214.755005,437.931824 
	C193.214767,458.361511 171.840103,478.525085 150.469696,498.693237 
	C146.362640,502.569275 142.272507,506.463196 138.035614,510.656128 
	C124.330597,523.700867 110.812523,536.490173 97.162422,549.136963 
	C94.014290,552.053650 90.669014,554.929382 86.967903,557.041443 
	C79.474701,561.317261 74.878304,558.676025 75.121567,550.138367 
	C75.281494,544.525818 76.163292,538.852722 77.420189,533.366760 
	C82.540764,511.016876 87.905556,488.722687 93.231110,466.420105 
	C96.192009,454.020325 99.252914,441.644470 102.270538,428.873077 
	C107.802216,405.235962 114.007439,382.117462 118.652779,358.689697 
	C122.513580,339.218628 110.753326,316.026733 93.526062,305.813812 
	C82.233681,299.119263 70.804413,292.655884 59.451244,286.063507 
	C51.846306,281.647583 45.940361,275.788147 43.968300,266.869781 
	C41.558174,255.970352 45.880260,247.289749 53.514198,240.000977 
	C71.330109,222.990570 89.269691,206.109695 107.159668,189.176880 
	C113.686264,182.999466 120.214233,176.823532 126.876663,170.342377 
	C145.046143,153.102982 163.106659,136.195816 181.106644,119.224480 
	C195.370193,105.776047 209.559570,92.248940 223.917999,78.457108 
	C237.894562,65.177956 251.655701,52.112186 265.627960,39.276230 
	C269.385956,35.823868 273.487549,32.504486 277.968079,30.141689 
	C283.361755,27.297340 287.280975,29.609451 287.677979,35.725471 
	C287.963684,40.126308 287.410126,44.727119 286.400543,49.044559 
	C272.885803,106.841583 259.263367,164.613541 245.581818,222.371384 
	C239.690308,247.242844 249.719315,270.864044 271.882874,283.704956 
	C282.390533,289.792816 292.967957,295.761047 303.444183,301.902222 
	C322.629730,313.148804 325.078461,332.187256 309.421906,348.038544 
	C306.731659,350.762238 303.910828,353.356903 301.001038,356.294800 
z"/>
</svg>